ffmpeg started on 2025-05-12 at 18:41:34
Report written to "D:\Convert\FFMetrics\reports\ssim_report-6.txt"
Log level: 32
Command line:
ffmpeg -hide_banner -nostdin -i "G:\\\xc0\xed\xe8\xec\xe5\\\xce\xed\xe3\xee\xe8\xed\xe3\xe8\\!_35_\xcb\xe5\xf2\xee_2024\\DreamCast\\\xcf\xee\xea\xe0-\xef\xee\xea\xe0, \xc7\xe5\xec\xeb\xff\\[DC] Bye Bye Earth - 04_Telegram_HEVC.mkv" -i "G:\\\xc0\xed\xe8\xec\xe5\\\xce\xed\xe3\xee\xe8\xed\xe3\xe8\\!_35_\xcb\xe5\xf2\xee_2024\\DreamCast\\\xcf\xee\xea\xe0-\xef\xee\xea\xe0, \xc7\xe5\xec\xeb\xff\\[DC] Bye Bye Earth - 04_Telegram.mp4" -lavfi "[0:v]settb=AVTB,setpts=PTS-STARTPTS,format=pix_fmts=yuv420p10,fps=24000/1001,scale=1920:1080:flags=bicubic[main];[1:v]settb=AVTB,setpts=PTS-STARTPTS,format=pix_fmts=yuv420p,fps=24000/1001,scale=1920:1080:flags=bicubic[ref];[main][ref]ssim=eof_action=endall:stats_file='D\\:/Convert/FFMetrics/logs/ssim_logfile-6.txt'" -f null -
Input #0, matroska,webm, from 'G:\Аниме\Онгоинги\!_35_Лето_2024\DreamCast\Пока-пока, Земля\[DC] Bye Bye Earth - 04_Telegram_HEVC.mkv':
  Metadata:
    COMPATIBLE_BRANDS: isomiso2avc1mp41
    MAJOR_BRAND     : isom
    MINOR_VERSION   : 512
    ENCODER         : Lavf61.7.100
  Duration: 00:23:48.52, start: -0.021000, bitrate: 1319 kb/s
  Stream #0:0: Video: hevc (Main 10), yuv420p10le(tv, bt709, progressive), 1920x1080 [SAR 1:1 DAR 16:9], 23.98 fps, 23.98 tbr, 1k tbn (default)
      Metadata:
        HANDLER_NAME    : VideoHandler
        VENDOR_ID       : [0][0][0][0]
        ENCODER         : Lavc61.19.100 libx265
        BPS             : 1122597
        DURATION        : 00:23:46.549708333
        NUMBER_OF_FRAMES: 34203
        NUMBER_OF_BYTES : 200179957
        _STATISTICS_WRITING_APP: mkvpropedit v66.0.0 ('Josie') 64-bit
        _STATISTICS_WRITING_DATE_UTC: 2025-05-09 15:46:02
        _STATISTICS_TAGS: BPS DURATION NUMBER_OF_FRAMES NUMBER_OF_BYTES
  Stream #0:1: Audio: aac (LC), 48000 Hz, stereo, fltp (default)
      Metadata:
        HANDLER_NAME    : SoundHandler
        VENDOR_ID       : [0][0][0][0]
        ENCODER         : Lavc61.19.100 aac
        BPS             : 193906
        DURATION        : 00:23:48.522000000
        NUMBER_OF_FRAMES: 66963
        NUMBER_OF_BYTES : 34625008
        _STATISTICS_WRITING_APP: mkvpropedit v66.0.0 ('Josie') 64-bit
        _STATISTICS_WRITING_DATE_UTC: 2025-05-09 15:46:02
        _STATISTICS_TAGS: BPS DURATION NUMBER_OF_FRAMES NUMBER_OF_BYTES
Input #1, mov,mp4,m4a,3gp,3g2,mj2, from 'G:\Аниме\Онгоинги\!_35_Лето_2024\DreamCast\Пока-пока, Земля\[DC] Bye Bye Earth - 04_Telegram.mp4':
  Metadata:
    major_brand     : isom
    minor_version   : 512
    compatible_brands: isomiso2avc1mp41
    encoder         : Lavf61.1.100
  Duration: 00:23:48.46, start: 0.000000, bitrate: 3821 kb/s
  Stream #1:0[0x1](und): Video: h264 (High) (avc1 / 0x31637661), yuv420p(tv, bt709, progressive), 1920x1080 [SAR 1:1 DAR 16:9], 3678 kb/s, 23.98 fps, 23.98 tbr, 24k tbn (default)
      Metadata:
        handler_name    : VideoHandler
        vendor_id       : [0][0][0][0]
        encoder         : Lavc61.3.100 h264_qsv
  Stream #1:1[0x2](und): Audio: aac (HE-AACv2) (mp4a / 0x6134706D), 48000 Hz, stereo, fltp, 144 kb/s (default)
      Metadata:
        handler_name    : SoundHandler
        vendor_id       : [0][0][0][0]
Stream mapping:
  Stream #0:0 (hevc) -> settb:default
  Stream #1:0 (h264) -> settb:default
  ssim:default -> Stream #0:0 (wrapped_avframe)
  Stream #0:1 -> #0:1 (aac (native) -> pcm_s16le (native))
Output #0, null, to 'pipe:':
  Metadata:
    COMPATIBLE_BRANDS: isomiso2avc1mp41
    MAJOR_BRAND     : isom
    MINOR_VERSION   : 512
    encoder         : Lavf61.7.100
  Stream #0:0: Video: wrapped_avframe, yuv420p10le(tv, bt709, progressive), 1920x1080 [SAR 1:1 DAR 16:9], q=2-31, 200 kb/s, 23.98 fps, 23.98 tbn
      Metadata:
        encoder         : Lavc61.19.100 wrapped_avframe
  Stream #0:1: Audio: pcm_s16le, 48000 Hz, stereo, s16, 1536 kb/s (default)
      Metadata:
        HANDLER_NAME    : SoundHandler
        VENDOR_ID       : [0][0][0][0]
        _STATISTICS_TAGS: BPS DURATION NUMBER_OF_FRAMES NUMBER_OF_BYTES
        BPS             : 193906
        DURATION        : 00:23:48.522000000
        NUMBER_OF_FRAMES: 66963
        NUMBER_OF_BYTES : 34625008
        _STATISTICS_WRITING_APP: mkvpropedit v66.0.0 ('Josie') 64-bit
        _STATISTICS_WRITING_DATE_UTC: 2025-05-09 15:46:02
        encoder         : Lavc61.19.100 pcm_s16le
frame=  165 fps=0.0 q=-0.0 size=N/A time=00:00:06.88 bitrate=N/A speed=13.3x    frame=  402 fps=386 q=-0.0 size=N/A time=00:00:16.76 bitrate=N/A speed=16.1x    frame=  627 fps=406 q=-0.0 size=N/A time=00:00:26.15 bitrate=N/A speed=16.9x    frame=  866 fps=418 q=-0.0 size=N/A time=00:00:36.11 bitrate=N/A speed=17.5x    frame= 1084 fps=421 q=-0.0 size=N/A time=00:00:45.21 bitrate=N/A speed=17.6x    frame= 1314 fps=424 q=-0.0 size=N/A time=00:00:54.80 bitrate=N/A speed=17.7x    frame= 1545 fps=428 q=-0.0 size=N/A time=00:01:04.43 bitrate=N/A speed=17.9x    frame= 1794 fps=434 q=-0.0 size=N/A time=00:01:14.82 bitrate=N/A speed=18.1x    frame= 1999 fps=431 q=-0.0 size=N/A time=00:01:23.37 bitrate=N/A speed=  18x    frame= 2226 fps=431 q=-0.0 size=N/A time=00:01:32.84 bitrate=N/A speed=  18x    frame= 2455 fps=433 q=-0.0 size=N/A time=00:01:42.39 bitrate=N/A speed=18.1x    frame= 2686 fps=434 q=-0.0 size=N/A time=00:01:52.02 bitrate=N/A speed=18.1x    frame= 2936 fps=438 q=-0.0 size=N/A time=00:02:02.45 bitrate=N/A speed=18.3x    frame= 3159 fps=437 q=-0.0 size=N/A time=00:02:11.75 bitrate=N/A speed=18.2x    frame= 3395 fps=439 q=-0.0 size=N/A time=00:02:21.59 bitrate=N/A speed=18.3x    frame= 3619 fps=438 q=-0.0 size=N/A time=00:02:30.94 bitrate=N/A speed=18.3x    frame= 3801 fps=433 q=-0.0 size=N/A time=00:02:38.53 bitrate=N/A speed=18.1x    frame= 3972 fps=428 q=-0.0 size=N/A time=00:02:45.66 bitrate=N/A speed=17.9x    frame= 4196 fps=428 q=-0.0 size=N/A time=00:02:55.00 bitrate=N/A speed=17.9x    frame= 4408 fps=427 q=-0.0 size=N/A time=00:03:03.85 bitrate=N/A speed=17.8x    frame= 4616 fps=426 q=-0.0 size=N/A time=00:03:12.52 bitrate=N/A speed=17.8x    frame= 4792 fps=422 q=-0.0 size=N/A time=00:03:19.86 bitrate=N/A speed=17.6x    frame= 4958 fps=418 q=-0.0 size=N/A time=00:03:26.78 bitrate=N/A speed=17.4x    frame= 5187 fps=419 q=-0.0 size=N/A time=00:03:36.34 bitrate=N/A speed=17.5x    frame= 5388 fps=418 q=-0.0 size=N/A time=00:03:44.72 bitrate=N/A speed=17.4x    frame= 5592 fps=417 q=-0.0 size=N/A time=00:03:53.23 bitrate=N/A speed=17.4x    frame= 5851 fps=420 q=-0.0 size=N/A time=00:04:04.03 bitrate=N/A speed=17.5x    frame= 6077 fps=421 q=-0.0 size=N/A time=00:04:13.46 bitrate=N/A speed=17.6x    frame= 6312 fps=422 q=-0.0 size=N/A time=00:04:23.26 bitrate=N/A speed=17.6x    frame= 6563 fps=424 q=-0.0 size=N/A time=00:04:33.73 bitrate=N/A speed=17.7x    frame= 6816 fps=426 q=-0.0 size=N/A time=00:04:44.28 bitrate=N/A speed=17.8x    frame= 7067 fps=428 q=-0.0 size=N/A time=00:04:54.75 bitrate=N/A speed=17.9x    frame= 7324 fps=430 q=-0.0 size=N/A time=00:05:05.47 bitrate=N/A speed=17.9x    frame= 7576 fps=432 q=-0.0 size=N/A time=00:05:15.98 bitrate=N/A speed=  18x    frame= 7829 fps=434 q=-0.0 size=N/A time=00:05:26.53 bitrate=N/A speed=18.1x    frame= 8070 fps=435 q=-0.0 size=N/A time=00:05:36.58 bitrate=N/A speed=18.1x    frame= 8333 fps=437 q=-0.0 size=N/A time=00:05:47.55 bitrate=N/A speed=18.2x    frame= 8600 fps=439 q=-0.0 size=N/A time=00:05:58.69 bitrate=N/A speed=18.3x    frame= 8882 fps=441 q=-0.0 size=N/A time=00:06:10.45 bitrate=N/A speed=18.4x    frame= 9129 fps=443 q=-0.0 size=N/A time=00:06:20.75 bitrate=N/A speed=18.5x    frame= 9410 fps=445 q=-0.0 size=N/A time=00:06:32.47 bitrate=N/A speed=18.6x    frame= 9635 fps=445 q=-0.0 size=N/A time=00:06:41.85 bitrate=N/A speed=18.5x    frame= 9878 fps=446 q=-0.0 size=N/A time=00:06:51.99 bitrate=N/A speed=18.6x    frame=10118 fps=446 q=-0.0 size=N/A time=00:07:02.00 bitrate=N/A speed=18.6x    frame=10361 fps=446 q=-0.0 size=N/A time=00:07:12.14 bitrate=N/A speed=18.6x    frame=10600 fps=447 q=-0.0 size=N/A time=00:07:22.10 bitrate=N/A speed=18.6x    frame=10860 fps=448 q=-0.0 size=N/A time=00:07:32.95 bitrate=N/A speed=18.7x    frame=11063 fps=447 q=-0.0 size=N/A time=00:07:41.41 bitrate=N/A speed=18.6x    frame=11255 fps=445 q=-0.0 size=N/A time=00:07:49.42 bitrate=N/A speed=18.6x    frame=11473 fps=445 q=-0.0 size=N/A time=00:07:58.51 bitrate=N/A speed=18.5x    frame=11716 fps=445 q=-0.0 size=N/A time=00:08:08.65 bitrate=N/A speed=18.6x    frame=11978 fps=446 q=-0.0 size=N/A time=00:08:19.58 bitrate=N/A speed=18.6x    frame=12226 fps=447 q=-0.0 size=N/A time=00:08:29.92 bitrate=N/A speed=18.6x    frame=12465 fps=447 q=-0.0 size=N/A time=00:08:39.89 bitrate=N/A speed=18.7x    frame=12719 fps=448 q=-0.0 size=N/A time=00:08:50.48 bitrate=N/A speed=18.7x    frame=12992 fps=450 q=-0.0 size=N/A time=00:09:01.87 bitrate=N/A speed=18.8x    frame=13237 fps=450 q=-0.0 size=N/A time=00:09:12.09 bitrate=N/A speed=18.8x    frame=13493 fps=451 q=-0.0 size=N/A time=00:09:22.77 bitrate=N/A speed=18.8x    frame=13745 fps=451 q=-0.0 size=N/A time=00:09:33.28 bitrate=N/A speed=18.8x    frame=13982 fps=452 q=-0.0 size=N/A time=00:09:43.16 bitrate=N/A speed=18.8x    frame=14246 fps=453 q=-0.0 size=N/A time=00:09:54.17 bitrate=N/A speed=18.9x    frame=14509 fps=454 q=-0.0 size=N/A time=00:10:05.14 bitrate=N/A speed=18.9x    frame=14758 fps=454 q=-0.0 size=N/A time=00:10:15.53 bitrate=N/A speed=18.9x    frame=14960 fps=453 q=-0.0 size=N/A time=00:10:23.95 bitrate=N/A speed=18.9x    frame=15213 fps=454 q=-0.0 size=N/A time=00:10:34.50 bitrate=N/A speed=18.9x    frame=15469 fps=454 q=-0.0 size=N/A time=00:10:45.18 bitrate=N/A speed=18.9x    frame=15697 fps=454 q=-0.0 size=N/A time=00:10:54.69 bitrate=N/A speed=18.9x    frame=15953 fps=455 q=-0.0 size=N/A time=00:11:05.37 bitrate=N/A speed=  19x    frame=16187 fps=455 q=-0.0 size=N/A time=00:11:15.13 bitrate=N/A speed=  19x    frame=16460 fps=456 q=-0.0 size=N/A time=00:11:26.51 bitrate=N/A speed=  19x    frame=16729 fps=457 q=-0.0 size=N/A time=00:11:37.73 bitrate=N/A speed=19.1x    frame=17004 fps=458 q=-0.0 size=N/A time=00:11:49.20 bitrate=N/A speed=19.1x    frame=17268 fps=459 q=-0.0 size=N/A time=00:12:00.21 bitrate=N/A speed=19.1x    frame=17547 fps=460 q=-0.0 size=N/A time=00:12:11.85 bitrate=N/A speed=19.2x    frame=17782 fps=460 q=-0.0 size=N/A time=00:12:21.65 bitrate=N/A speed=19.2x    frame=18010 fps=459 q=-0.0 size=N/A time=00:12:31.16 bitrate=N/A speed=19.2x    frame=18272 fps=460 q=-0.0 size=N/A time=00:12:42.09 bitrate=N/A speed=19.2x    frame=18506 fps=460 q=-0.0 size=N/A time=00:12:51.85 bitrate=N/A speed=19.2x    frame=18737 fps=460 q=-0.0 size=N/A time=00:13:01.48 bitrate=N/A speed=19.2x    frame=18996 fps=460 q=-0.0 size=N/A time=00:13:12.29 bitrate=N/A speed=19.2x    frame=19249 fps=461 q=-0.0 size=N/A time=00:13:22.84 bitrate=N/A speed=19.2x    frame=19497 fps=461 q=-0.0 size=N/A time=00:13:33.18 bitrate=N/A speed=19.2x    frame=19740 fps=461 q=-0.0 size=N/A time=00:13:43.32 bitrate=N/A speed=19.2x    frame=20002 fps=462 q=-0.0 size=N/A time=00:13:54.25 bitrate=N/A speed=19.2x    frame=20237 fps=462 q=-0.0 size=N/A time=00:14:04.05 bitrate=N/A speed=19.3x    frame=20424 fps=460 q=-0.0 size=N/A time=00:14:11.85 bitrate=N/A speed=19.2x    frame=20671 fps=461 q=-0.0 size=N/A time=00:14:22.15 bitrate=N/A speed=19.2x    frame=20887 fps=460 q=-0.0 size=N/A time=00:14:31.16 bitrate=N/A speed=19.2x    frame=21133 fps=460 q=-0.0 size=N/A time=00:14:41.42 bitrate=N/A speed=19.2x    frame=21401 fps=461 q=-0.0 size=N/A time=00:14:52.60 bitrate=N/A speed=19.2x    frame=21648 fps=461 q=-0.0 size=N/A time=00:15:02.90 bitrate=N/A speed=19.2x    frame=21915 fps=462 q=-0.0 size=N/A time=00:15:14.03 bitrate=N/A speed=19.3x    frame=22130 fps=461 q=-0.0 size=N/A time=00:15:23.00 bitrate=N/A speed=19.2x    frame=22348 fps=461 q=-0.0 size=N/A time=00:15:32.09 bitrate=N/A speed=19.2x    frame=22585 fps=461 q=-0.0 size=N/A time=00:15:41.98 bitrate=N/A speed=19.2x    frame=22838 fps=461 q=-0.0 size=N/A time=00:15:52.53 bitrate=N/A speed=19.2x    frame=23072 fps=461 q=-0.0 size=N/A time=00:16:02.29 bitrate=N/A speed=19.2x    frame=23326 fps=461 q=-0.0 size=N/A time=00:16:12.88 bitrate=N/A speed=19.2x    frame=23591 fps=462 q=-0.0 size=N/A time=00:16:23.94 bitrate=N/A speed=19.3x    frame=23832 fps=462 q=-0.0 size=N/A time=00:16:33.99 bitrate=N/A speed=19.3x    frame=24083 fps=462 q=-0.0 size=N/A time=00:16:44.46 bitrate=N/A speed=19.3x    frame=24354 fps=463 q=-0.0 size=N/A time=00:16:55.76 bitrate=N/A speed=19.3x    frame=24621 fps=463 q=-0.0 size=N/A time=00:17:06.90 bitrate=N/A speed=19.3x    frame=24873 fps=463 q=-0.0 size=N/A time=00:17:17.41 bitrate=N/A speed=19.3x    frame=25136 fps=464 q=-0.0 size=N/A time=00:17:28.38 bitrate=N/A speed=19.3x    frame=25402 fps=464 q=-0.0 size=N/A time=00:17:39.47 bitrate=N/A speed=19.4x    frame=25665 fps=465 q=-0.0 size=N/A time=00:17:50.44 bitrate=N/A speed=19.4x    frame=25923 fps=465 q=-0.0 size=N/A time=00:18:01.20 bitrate=N/A speed=19.4x    frame=26193 fps=466 q=-0.0 size=N/A time=00:18:12.46 bitrate=N/A speed=19.4x    frame=26459 fps=466 q=-0.0 size=N/A time=00:18:23.56 bitrate=N/A speed=19.4x    frame=26710 fps=466 q=-0.0 size=N/A time=00:18:34.02 bitrate=N/A speed=19.4x    frame=26990 fps=467 q=-0.0 size=N/A time=00:18:45.70 bitrate=N/A speed=19.5x    frame=27235 fps=467 q=-0.0 size=N/A time=00:18:55.92 bitrate=N/A speed=19.5x    frame=27453 fps=467 q=-0.0 size=N/A time=00:19:05.01 bitrate=N/A speed=19.5x    frame=27680 fps=466 q=-0.0 size=N/A time=00:19:14.48 bitrate=N/A speed=19.5x    frame=27922 fps=466 q=-0.0 size=N/A time=00:19:24.58 bitrate=N/A speed=19.5x    frame=28168 fps=466 q=-0.0 size=N/A time=00:19:34.84 bitrate=N/A speed=19.5x    frame=28432 fps=467 q=-0.0 size=N/A time=00:19:45.85 bitrate=N/A speed=19.5x    frame=28696 fps=467 q=-0.0 size=N/A time=00:19:56.86 bitrate=N/A speed=19.5x    frame=28983 fps=468 q=-0.0 size=N/A time=00:20:08.83 bitrate=N/A speed=19.5x    frame=29250 fps=468 q=-0.0 size=N/A time=00:20:19.96 bitrate=N/A speed=19.5x    frame=29534 fps=469 q=-0.0 size=N/A time=00:20:31.81 bitrate=N/A speed=19.6x    frame=29798 fps=470 q=-0.0 size=N/A time=00:20:42.82 bitrate=N/A speed=19.6x    frame=30073 fps=470 q=-0.0 size=N/A time=00:20:54.29 bitrate=N/A speed=19.6x    frame=30320 fps=470 q=-0.0 size=N/A time=00:21:04.59 bitrate=N/A speed=19.6x    frame=30473 fps=469 q=-0.0 size=N/A time=00:21:10.97 bitrate=N/A speed=19.5x    frame=30723 fps=469 q=-0.0 size=N/A time=00:21:21.40 bitrate=N/A speed=19.6x    frame=30965 fps=469 q=-0.0 size=N/A time=00:21:31.49 bitrate=N/A speed=19.6x    frame=31236 fps=469 q=-0.0 size=N/A time=00:21:42.80 bitrate=N/A speed=19.6x    frame=31480 fps=469 q=-0.0 size=N/A time=00:21:52.97 bitrate=N/A speed=19.6x    frame=31640 fps=468 q=-0.0 size=N/A time=00:21:59.65 bitrate=N/A speed=19.5x    frame=31842 fps=468 q=-0.0 size=N/A time=00:22:08.07 bitrate=N/A speed=19.5x    frame=31979 fps=466 q=-0.0 size=N/A time=00:22:13.79 bitrate=N/A speed=19.4x    frame=32123 fps=465 q=-0.0 size=N/A time=00:22:19.79 bitrate=N/A speed=19.4x    frame=32270 fps=463 q=-0.0 size=N/A time=00:22:25.92 bitrate=N/A speed=19.3x    frame=32450 fps=462 q=-0.0 size=N/A time=00:22:33.43 bitrate=N/A speed=19.3x    frame=32619 fps=461 q=-0.0 size=N/A time=00:22:40.48 bitrate=N/A speed=19.2x    frame=32790 fps=461 q=-0.0 size=N/A time=00:22:47.61 bitrate=N/A speed=19.2x    frame=32939 fps=459 q=-0.0 size=N/A time=00:22:53.83 bitrate=N/A speed=19.2x    frame=33082 fps=458 q=-0.0 size=N/A time=00:22:59.79 bitrate=N/A speed=19.1x    frame=33221 fps=457 q=-0.0 size=N/A time=00:23:05.59 bitrate=N/A speed=  19x    frame=33369 fps=455 q=-0.0 size=N/A time=00:23:11.76 bitrate=N/A speed=  19x    frame=33517 fps=454 q=-0.0 size=N/A time=00:23:17.93 bitrate=N/A speed=18.9x    frame=33673 fps=453 q=-0.0 size=N/A time=00:23:24.44 bitrate=N/A speed=18.9x    frame=33844 fps=452 q=-0.0 size=N/A time=00:23:31.57 bitrate=N/A speed=18.9x    frame=34085 fps=452 q=-0.0 size=N/A time=00:23:41.62 bitrate=N/A speed=18.9x    [Parsed_ssim_10 @ 00000146ef01c800] SSIM Y:0.993523 (21.886471) U:0.994201 (22.366433) V:0.993905 (22.150596) All:0.993700 (22.006557)
[out#0/null @ 00000146ee0454c0] video:14697KiB audio:267852KiB subtitle:0KiB other streams:0KiB global headers:0KiB muxing overhead: unknown
frame=34203 fps=452 q=-0.0 Lsize=N/A time=00:23:46.55 bitrate=N/A speed=18.9x    
